# xmcd
#
# Track frame offsets:
#	150
#	33996
#	55665
#	77334
#
# Disc length: 1318 seconds
#
# Revision: 0
# Processed by: cddbd v1.4PL0 Copyright (c) Steve Scherf et al.
# Submitted via: EasyCDDAExtractor 4.6.9.1
#
DISCID=20052404
DTITLE=Shania Twain - Come On Over (Australian Tour) - Disc 2
DYEAR=1999
DGENRE=Country
TTITLE0=Medley - Home Ain't Where His Heart Is...
TTITLE1=From This Moment On
TTITLE2=Love Gets Me Every Time
TTITLE3=Don't Be Stupid (You Know I Love You)
EXTD=
EXTT0=
EXTT1=
EXTT2=
EXTT3=
PLAYORDER=
